<svg xmlns="http://www.w3.org/2000/svg" viewBox="0 0 64 64" role="img" aria-label="POVAtlas icon">
  <defs>
    <linearGradient id="bg" x1="9" x2="55" y1="8" y2="58" gradientUnits="userSpaceOnUse">
      <stop offset="0" stop-color="#5b86e5" />
      <stop offset="0.54" stop-color="#6fc3e8" />
      <stop offset="1" stop-color="#5ec9a0" />
    </linearGradient>
    <linearGradient id="pin" x1="24" x2="40" y1="17" y2="44" gradientUnits="userSpaceOnUse">
      <stop offset="0" stop-color="#ffc857" />
      <stop offset="1" stop-color="#ff9e80" />
    </linearGradient>
  </defs>

  <rect width="64" height="64" rx="15" fill="#3a4a73" />
  <path d="M11 19.5c6.5-4.2 13.2-5.2 20.5-2.1 7.3 3.1 14 2.1 21.5-2.9v31c-7.5 5-14.2 6-21.5 2.9-7.3-3.1-14-2.1-20.5 2.1z" fill="url(#bg)" />
  <path d="M11 19.5c6.5-4.2 13.2-5.2 20.5-2.1 7.3 3.1 14 2.1 21.5-2.9v31c-7.5 5-14.2 6-21.5 2.9-7.3-3.1-14-2.1-20.5 2.1z" fill="none" stroke="#fff7ee" stroke-width="2.5" stroke-linejoin="round" />

  <path d="M21.7 16.1v31.4M32 17.5v31.2M42.4 17.8v29.1" fill="none" stroke="#fff7ee" stroke-width="1.55" stroke-linecap="round" opacity=".7" />
  <path d="M13.4 29.1c7.2-3.3 13.2-3.5 19.5-.6 6.2 2.9 11.7 2.5 18.1-1.2M13.4 39.7c7.2-3.3 13.2-3.5 19.5-.6 6.2 2.9 11.7 2.5 18.1-1.2" fill="none" stroke="#fff7ee" stroke-width="1.55" stroke-linecap="round" opacity=".7" />

  <path d="M32 18.5c-7 0-12.5 5.3-12.5 12.2 0 8.6 12.5 17.8 12.5 17.8s12.5-9.2 12.5-17.8c0-6.9-5.5-12.2-12.5-12.2z" fill="url(#pin)" stroke="#3a4a73" stroke-width="2.5" stroke-linejoin="round" />
  <circle cx="32" cy="30.5" r="6.8" fill="#fff7ee" />
  <path d="M32 24.5l3.3 2.3-1.2 3.9h-4.2l-1.2-3.9z" fill="#3a4a73" />
  <path d="M25.7 30.1l3 1.8M38.3 30.1l-3 1.8M29.8 36.8l1.1-3.5M34.2 36.8l-1.1-3.5" stroke="#3a4a73" stroke-width="1.4" stroke-linecap="round" />
</svg>
